# xmcd CD database file
#
# Track frame offsets:
#	150
#	12063
#	29226
#	57366
#	78255
#	106023
#	122844
#	135237
#	159606
#	183804
#	217686
#	254316
#	293886
#	322593
#
# Disc length: 4597 seconds
#
# Revision: 0
# Processed by: cddbd v1.5.2PL0 Copyright (c) Steve Scherf et al.
# Submitted via: CDex 1.70beta2
#
DISCID=ad11f30e
DTITLE=WRS-Bigband - Jazz
DYEAR=2005
DGENRE=Jazz
TTITLE0=A foggy Day
TTITLE1=Wade in the Water
TTITLE2=The Queen Bee
TTITLE3=Ballad for a Friend
TTITLE4=Maiden Voyage
TTITLE5=A Night in Tunisia
TTITLE6=Four
TTITLE7=Solar
TTITLE8=Ojos de Rojo
TTITLE9=Bolerianische Wintersonne
TTITLE10=Speak no Evil
TTITLE11=Poinciana
TTITLE12=Dreyer
TTITLE13=Passion Dance
EXTD=YEAR: 2005
EXTT0=
EXTT1=
EXTT2=
EXTT3=
EXTT4=
EXTT5=
EXTT6=
EXTT7=
EXTT8=
EXTT9=
EXTT10=
EXTT11=
EXTT12=
EXTT13=
PLAYORDER=
